<svg xmlns="http://www.w3.org/2000/svg" width="36" height="36" viewBox="0 0 36 36">
    <g fill="none" fill-rule="evenodd">
        <path d="M0 0h36v36H0z"/>
        <path fill="#010002" d="M29 10.38c-.847.4-1.755.673-2.71.794.975-.624 1.721-1.613 2.075-2.788a9.15 9.15 0 0 1-2.998 1.224c-.861-.981-2.086-1.592-3.444-1.592-2.606 0-4.718 2.257-4.718 5.04 0 .395.041.78.122 1.15-3.921-.211-7.398-2.219-9.724-5.269a5.269 5.269 0 0 0-.639 2.534c0 1.75.834 3.293 2.099 4.196a4.49 4.49 0 0 1-2.137-.632v.063c0 2.442 1.627 4.48 3.784 4.943a4.492 4.492 0 0 1-1.243.177c-.305 0-.6-.032-.889-.094.601 2.005 2.343 3.462 4.407 3.502-1.614 1.352-3.65 2.155-5.86 2.155-.38 0-.756-.025-1.125-.07 2.088 1.434 4.568 2.27 7.232 2.27 8.68 0 13.424-7.683 13.424-14.346l-.016-.652A9.802 9.802 0 0 0 29 10.38z"/>
    </g>
</svg>
