<svg xmlns="http://www.w3.org/2000/svg" width="151" height="16" viewBox="0 0 151 16">
    <path fill="#000" fill-rule="evenodd" d="M3.2 1.357V15H.561V1.357H3.2zm6.502 0V12.94h6.621V15H7.066V1.357h2.636zm11.965 0V12.94h6.62V15H19.03V1.357h2.637zm11.866 0v7.94c0 .814.122 1.461.366 1.943.245.482.643.88 1.197 1.192.553.312 1.198.468 1.933.468.808 0 1.493-.148 2.056-.444.563-.296.975-.7 1.235-1.21.26-.512.39-1.22.39-2.125V1.357h2.638v8.106c0 1.836-.55 3.247-1.65 4.233-1.101.987-2.657 1.48-4.669 1.48-1.263 0-2.358-.225-3.286-.674-.928-.45-1.636-1.099-2.124-1.948-.488-.85-.732-1.848-.732-2.993V1.357h2.646zm18.18-.175c1.328 0 2.607.332 3.838.996V4.52c-1.413-.852-2.666-1.279-3.76-1.279-.664 0-1.183.129-1.558.386-.374.257-.561.6-.561 1.03 0 .515.348.99 1.045 1.426.195.13.947.495 2.256 1.094 1.12.527 1.927 1.113 2.422 1.758.494.644.742 1.419.742 2.324 0 1.172-.422 2.117-1.265 2.837-.843.72-1.935 1.079-3.276 1.079-.873 0-1.623-.096-2.251-.288-.629-.192-1.333-.523-2.115-.992V11.3c1.459 1.21 2.832 1.816 4.122 1.816.644 0 1.165-.14 1.562-.42.397-.28.596-.65.596-1.113 0-.631-.345-1.146-1.035-1.543a51.264 51.264 0 0 0-2.217-1.123c-1.074-.488-1.877-1.058-2.407-1.709a3.48 3.48 0 0 1-.796-2.266c0-1.145.426-2.059 1.279-2.739.853-.68 1.98-1.02 3.379-1.02zm18.346.175v2.061h-4.843V15h-2.637V3.418h-4.844v-2.06H70.06zm7.514 0c1.283 0 2.328.355 3.135 1.065.807.71 1.211 1.634 1.211 2.773 0 .775-.2 1.45-.6 2.027-.4.576-.995 1.03-1.783 1.362.437.234.824.553 1.162.957.339.404.759 1.084 1.26 2.041.834 1.654 1.452 2.793 1.856 3.418h-2.94c-.202-.3-.475-.778-.82-1.436-.755-1.451-1.309-2.43-1.66-2.934-.352-.505-.69-.863-1.016-1.074a2.015 2.015 0 0 0-1.123-.318h-.957V15h-2.637V1.357h4.912zm-.595 5.82c.69 0 1.232-.172 1.626-.517.394-.345.59-.817.59-1.416 0-.625-.195-1.092-.585-1.401-.391-.31-.948-.464-1.67-.464h-1.641v3.799h1.68zm16.078-5.82L99.082 15h-2.784l-1.416-3.32h-6.064L87.5 15h-2.764L90.36 1.357h2.695zm-3.437 8.32h4.404l-2.305-5.4-2.1 5.4zm21.443-8.32v2.061h-4.844V15h-2.637V3.418h-4.844v-2.06h12.325zm4.897 0V15h-2.637V1.357h2.637zm10.859-.175c1.412 0 2.683.291 3.813.874a6.726 6.726 0 0 1 2.7 2.52 6.787 6.787 0 0 1 1.006 3.608c0 1.276-.327 2.459-.981 3.55a6.751 6.751 0 0 1-2.696 2.538c-1.142.603-2.43.904-3.862.904-1.413 0-2.697-.306-3.852-.918-1.156-.612-2.056-1.454-2.7-2.525-.645-1.07-.967-2.254-.967-3.55 0-1.25.322-2.425.966-3.525a6.712 6.712 0 0 1 2.666-2.563c1.133-.609 2.435-.913 3.907-.913zm-4.815 7.002c0 .905.205 1.718.615 2.441.41.723.982 1.283 1.714 1.68.733.397 1.561.595 2.486.595 1.4 0 2.55-.44 3.452-1.318.901-.879 1.352-2.012 1.352-3.398 0-.905-.203-1.72-.61-2.447a4.22 4.22 0 0 0-1.719-1.684c-.739-.397-1.57-.596-2.495-.596-.924 0-1.756.2-2.495.6-.739.401-1.307.96-1.704 1.68s-.596 1.535-.596 2.447zm17.82-6.827l8.105 9.522V1.357h2.578V15h-2.266l-8.154-9.678V15h-2.578V1.357h2.314z"/>
</svg>
