<svg xmlns="http://www.w3.org/2000/svg" width="73" height="16" viewBox="0 0 73 16">
    <path fill="#000" fill-rule="nonzero" d="M8.52 15.176c1.432 0 2.72-.301 3.862-.904a6.751 6.751 0 0 0 2.695-2.539 6.776 6.776 0 0 0 .982-3.55 6.787 6.787 0 0 0-1.006-3.608 6.726 6.726 0 0 0-2.7-2.52c-1.13-.582-2.401-.873-3.814-.873-1.471 0-2.773.304-3.906.913a6.712 6.712 0 0 0-2.666 2.563A6.86 6.86 0 0 0 1 8.184c0 1.295.322 2.478.967 3.55.644 1.07 1.544 1.912 2.7 2.524 1.156.612 2.44.918 3.853.918zm.02-2.276c-.925 0-1.754-.198-2.486-.595a4.277 4.277 0 0 1-1.714-1.68c-.41-.723-.615-1.536-.615-2.441 0-.912.198-1.727.595-2.447.397-.72.965-1.279 1.704-1.68.74-.4 1.571-.6 2.496-.6.924 0 1.756.199 2.495.596a4.22 4.22 0 0 1 1.718 1.684c.407.726.61 1.542.61 2.447 0 1.386-.45 2.52-1.352 3.398-.901.879-2.052 1.318-3.452 1.318zM24.802 15V3.418h4.844v-2.06H17.323v2.06h4.843V15h2.637zm9.883 0V9.238h7.08V15h2.636V1.357h-2.636V7.1h-7.08V1.357h-2.637V15h2.637zm22.98 0v-2.06h-6.32V9.062h5.919V7.002h-5.918V3.418h6.182v-2.06H48.71V15h8.955zm6.297 0V9.238h.957c.423 0 .797.106 1.123.318.325.211.664.57 1.016 1.074.351.504.905 1.483 1.66 2.934.345.658.618 1.137.82 1.436h2.94c-.404-.625-1.023-1.764-1.856-3.418-.501-.957-.921-1.637-1.26-2.041a3.955 3.955 0 0 0-1.162-.957c.788-.332 1.382-.786 1.782-1.362.4-.576.601-1.252.601-2.027 0-1.139-.404-2.063-1.211-2.773s-1.852-1.065-3.135-1.065h-4.912V15h2.637zm1.68-7.822h-1.68v-3.8h1.64c.723 0 1.28.156 1.67.465.391.309.586.776.586 1.401 0 .6-.197 1.071-.59 1.416-.394.345-.936.518-1.626.518z"/>
</svg>
