<svg xmlns="http://www.w3.org/2000/svg" width="149" height="16" viewBox="0 0 149 16">
    <path fill="#000" fill-rule="evenodd" d="M6.012 1.357c1.276 0 2.312.37 3.11 1.109.797.739 1.196 1.69 1.196 2.856 0 1.179-.403 2.132-1.21 2.862-.808.729-1.873 1.093-3.194 1.093h-2.54V15H.739V1.357h5.274zm-.655 5.86c.703 0 1.252-.161 1.646-.484.394-.322.59-.799.59-1.43 0-1.257-.807-1.885-2.421-1.885H3.375v3.799h1.982zm10.697-5.86V7.1h7.08V1.357h2.637V15h-2.636V9.238h-7.08V15h-2.637V1.357h2.636zm20.717-.175c1.413 0 2.684.291 3.814.874a6.726 6.726 0 0 1 2.7 2.52 6.787 6.787 0 0 1 1.006 3.608c0 1.276-.327 2.459-.982 3.55a6.751 6.751 0 0 1-2.695 2.538c-1.143.603-2.43.904-3.862.904-1.413 0-2.697-.306-3.853-.918-1.155-.612-2.055-1.454-2.7-2.525-.645-1.07-.967-2.254-.967-3.55 0-1.25.322-2.425.967-3.525a6.712 6.712 0 0 1 2.666-2.563c1.133-.609 2.435-.913 3.906-.913zm-4.814 7.002c0 .905.205 1.718.615 2.441.41.723.982 1.283 1.714 1.68s1.56.595 2.485.595c1.4 0 2.55-.44 3.452-1.318.902-.879 1.353-2.012 1.353-3.398 0-.905-.203-1.72-.61-2.447a4.22 4.22 0 0 0-1.72-1.684c-.738-.397-1.57-.596-2.494-.596-.925 0-1.756.2-2.495.6-.74.401-1.307.96-1.704 1.68-.398.72-.596 1.535-.596 2.447zm25.922-6.827v2.061h-4.844V15H50.4V3.418h-4.844v-2.06h12.324zm8.793-.175c1.413 0 2.684.291 3.814.874a6.726 6.726 0 0 1 2.7 2.52 6.787 6.787 0 0 1 1.006 3.608c0 1.276-.327 2.459-.981 3.55a6.751 6.751 0 0 1-2.696 2.538c-1.142.603-2.43.904-3.862.904-1.413 0-2.697-.306-3.853-.918-1.155-.612-2.055-1.454-2.7-2.525-.644-1.07-.967-2.254-.967-3.55 0-1.25.323-2.425.967-3.525a6.712 6.712 0 0 1 2.666-2.563c1.133-.609 2.435-.913 3.906-.913zm-4.814 7.002c0 .905.205 1.718.615 2.441.41.723.982 1.283 1.714 1.68.733.397 1.561.595 2.485.595 1.4 0 2.55-.44 3.453-1.318.901-.879 1.352-2.012 1.352-3.398 0-.905-.203-1.72-.61-2.447a4.22 4.22 0 0 0-1.719-1.684c-.739-.397-1.57-.596-2.495-.596s-1.756.2-2.495.6c-.74.401-1.307.96-1.704 1.68s-.596 1.535-.596 2.447zm22.763-7.002c1.68 0 3.346.374 5 1.123v2.412c-1.654-.84-3.281-1.26-4.883-1.26-.996 0-1.881.199-2.656.596a4.278 4.278 0 0 0-1.802 1.714c-.426.745-.64 1.577-.64 2.495 0 1.393.464 2.514 1.392 3.364.928.85 2.15 1.274 3.667 1.274.417 0 .815-.035 1.196-.107s.835-.208 1.363-.41v-2.266h-2.256v-2.06h4.892v5.625c-.67.468-1.476.835-2.417 1.098-.94.264-1.919.396-2.934.396-1.439 0-2.743-.296-3.911-.889-1.169-.592-2.08-1.422-2.735-2.49-.654-1.068-.981-2.26-.981-3.574 0-1.335.33-2.543.991-3.623.66-1.081 1.582-1.921 2.764-2.52 1.181-.599 2.498-.898 3.95-.898zm14.298.175c1.283 0 2.327.355 3.135 1.065.807.71 1.21 1.634 1.21 2.773 0 .775-.2 1.45-.6 2.027-.4.576-.994 1.03-1.782 1.362.436.234.823.553 1.162.957.338.404.758 1.084 1.26 2.041.833 1.654 1.452 2.793 1.855 3.418h-2.94c-.201-.3-.475-.778-.82-1.436-.755-1.451-1.308-2.43-1.66-2.934-.351-.505-.69-.863-1.015-1.074a2.015 2.015 0 0 0-1.123-.318h-.957V15h-2.637V1.357h4.912zm-.596 5.82c.69 0 1.232-.172 1.626-.517.394-.345.591-.817.591-1.416 0-.625-.195-1.092-.586-1.401-.39-.31-.947-.464-1.67-.464h-1.64v3.799h1.68zm16.279-5.82L120.627 15h-2.783l-1.416-3.32h-6.065L109.045 15h-2.764l5.625-13.643h2.696zm-3.438 8.32h4.405l-2.305-5.4-2.1 5.4zm17.338-8.32c1.276 0 2.313.37 3.11 1.109.798.739 1.197 1.69 1.197 2.856 0 1.179-.404 2.132-1.211 2.862-.807.729-1.872 1.093-3.194 1.093h-2.539V15h-2.636V1.357h5.273zm-.654 5.86c.703 0 1.251-.161 1.645-.484.394-.322.591-.799.591-1.43 0-1.257-.807-1.885-2.422-1.885h-1.797v3.799h1.983zm10.697-5.86V7.1h7.08V1.357h2.637V15h-2.637V9.238h-7.08V15h-2.637V1.357h2.637z"/>
</svg>
