<svg xmlns="http://www.w3.org/2000/svg" width="20" height="16" viewBox="0 0 20 16">
    <path fill="#000" fill-rule="evenodd" d="M3.13 1.357v7.94c0 .814.122 1.461.366 1.943.245.482.643.88 1.197 1.192.553.312 1.198.468 1.933.468.808 0 1.493-.148 2.056-.444.563-.296.975-.7 1.235-1.21.26-.512.391-1.22.391-2.125V1.357h2.637v8.106c0 1.836-.55 3.247-1.65 4.233-1.1.987-2.657 1.48-4.669 1.48-1.263 0-2.358-.225-3.286-.674-.928-.45-1.636-1.099-2.124-1.948-.488-.85-.732-1.848-.732-2.993V1.357H3.13zm16.22 0V15h-2.637V1.357h2.637z"/>
</svg>
