<svg xmlns="http://www.w3.org/2000/svg" width="63" height="16" viewBox="0 0 63 16">
    <path fill="#000" fill-rule="nonzero" d="M6.782 15.176c2.011 0 3.567-.493 4.668-1.48 1.1-.986 1.65-2.397 1.65-4.233V1.357h-2.637v7.764c0 .905-.13 1.613-.39 2.124-.26.511-.672.915-1.236 1.211-.563.296-1.248.444-2.055.444-.736 0-1.38-.156-1.934-.468-.553-.313-.952-.71-1.196-1.192s-.366-1.13-.366-1.943v-7.94H.639v8.204c0 1.145.244 2.143.733 2.993.488.85 1.196 1.499 2.124 1.948.927.45 2.023.674 3.286.674zM19.306 15V1.357h-2.637V15h2.637zm6.102.176L29.05 1.182h-1.738L23.67 15.176h1.738zm14.061 0c2.012 0 3.568-.493 4.668-1.48 1.1-.986 1.65-2.397 1.65-4.233V1.357h-2.636v7.764c0 .905-.13 1.613-.391 2.124-.26.511-.672.915-1.235 1.211-.563.296-1.249.444-2.056.444-.736 0-1.38-.156-1.934-.468-.553-.313-.952-.71-1.196-1.192s-.366-1.13-.366-1.943v-7.94h-2.647v8.204c0 1.145.245 2.143.733 2.993.488.85 1.196 1.499 2.124 1.948.928.45 2.023.674 3.286.674zM50.97 15l4.14-5.098L59.252 15h3.34l-5.84-7.06 5.342-6.583h-3.281l-3.701 4.62-3.76-4.62h-3.32l5.4 6.582L47.65 15h3.32z"/>
</svg>
