<svg xmlns="http://www.w3.org/2000/svg" width="92" height="12" viewBox="0 0 92 12">
    <path fill="#FFF" fill-rule="evenodd" d="M2.755.086L5.84 7.094 8.848.086h2.211L6.24 11.14h-.734L.528.086h2.227zm13.542 0V11h-2.11V.086h2.11zm8.017-.14c1.063 0 2.086.265 3.07.796v1.875c-1.13-.682-2.132-1.023-3.007-1.023-.532 0-.947.103-1.247.308-.299.206-.449.48-.449.825 0 .411.279.791.836 1.14.156.104.758.396 1.805.875.896.422 1.542.89 1.937 1.406.396.516.594 1.136.594 1.86 0 .937-.337 1.694-1.012 2.27-.674.575-1.548.863-2.62.863-.699 0-1.299-.077-1.801-.23-.503-.154-1.067-.419-1.692-.794V8.04c1.167.969 2.266 1.453 3.297 1.453.516 0 .932-.112 1.25-.336.318-.224.477-.52.477-.89 0-.506-.276-.917-.829-1.235a41.01 41.01 0 0 0-1.773-.898c-.86-.39-1.501-.847-1.926-1.367a2.785 2.785 0 0 1-.637-1.813c0-.917.342-1.647 1.024-2.191.682-.545 1.583-.817 2.703-.817zm9.54.14V11h-2.11V.086h2.11zm12.707 0v1.648h-3.875V11h-2.11V1.734h-3.874V.086h9.859zm12.41-.14c1.063 0 2.087.265 3.071.796v1.875c-1.13-.682-2.133-1.023-3.008-1.023-.53 0-.946.103-1.246.308-.3.206-.449.48-.449.825 0 .411.279.791.836 1.14.156.104.758.396 1.805.875.896.422 1.541.89 1.937 1.406.396.516.594 1.136.594 1.86 0 .937-.337 1.694-1.012 2.27-.674.575-1.548.863-2.62.863-.699 0-1.299-.077-1.802-.23-.502-.154-1.066-.419-1.691-.794V8.04c1.167.969 2.266 1.453 3.297 1.453.515 0 .932-.112 1.25-.336.318-.224.476-.52.476-.89 0-.506-.276-.917-.828-1.235a41.01 41.01 0 0 0-1.773-.898c-.86-.39-1.501-.847-1.926-1.367a2.785 2.785 0 0 1-.637-1.813c0-.917.341-1.647 1.024-2.191.682-.545 1.583-.817 2.703-.817zm9.54.14V11H66.4V.086h2.11zm12.608 0v1.648h-3.875V11h-2.11V1.734H71.26V.086h9.86zm9.956 0v1.648H86.13v2.868h4.734V6.25H86.13v3.102h5.054V11H84.02V.086h7.055z"/>
</svg>
