<svg xmlns="http://www.w3.org/2000/svg" width="47" height="16" viewBox="0 0 47 16">
    <path fill="#000" fill-rule="evenodd" d="M3.287 1.357l3.398 8.418 3.574-8.418h2.227l3.593 8.448 3.39-8.448h2.694l-5.615 13.819h-.888L11.363 5.059 7.046 15.176h-.86L.563 1.357h2.725zm29.677 0v2.061h-6.182v3.584H32.7v2.06h-5.918v3.877h6.319V15h-8.955V1.357h8.818zm8.498 0c1.25 0 2.268.326 3.056.977.788.651 1.182 1.465 1.182 2.441 0 .625-.165 1.176-.493 1.65-.33.476-.806.854-1.431 1.134v.117c.95.215 1.691.64 2.222 1.274.53.635.796 1.379.796 2.232 0 .755-.194 1.43-.581 2.026a3.575 3.575 0 0 1-1.612 1.343c-.687.3-1.496.449-2.427.449h-5.712V1.357h5zm-.704 5.664c.697 0 1.247-.166 1.65-.498.404-.332.606-.794.606-1.386 0-.528-.185-.946-.556-1.255-.371-.31-.86-.464-1.465-.464h-1.895v3.603h1.66zm.616 5.918c.892 0 1.565-.167 2.021-.502.456-.336.684-.829.684-1.48 0-.58-.227-1.037-.679-1.372-.452-.335-1.06-.503-1.821-.503h-2.48v3.857h2.275z"/>
</svg>
