<svg xmlns="http://www.w3.org/2000/svg" width="237" height="24" viewBox="0 0 237 24">
    <g fill="#050101" fill-rule="evenodd">
        <path d="M3.84.399v8.199h.076l6.51-8.2h3.904L7.718 8.764l8.57 9.394h-4.4L3.84 9.437v8.72H.407V.4zM29.991.399V3.08h-8.048v4.665h7.705v2.682h-7.705v5.047h8.226v2.682H18.51V.4zM37.299.399l10.553 12.394V.4h3.357v17.758h-2.95L37.642 5.56v12.597h-3.357V.4zM69.72.399V3.08h-6.308v15.076H59.98V3.081h-6.308V.4zM75.16 11.23h5.735L77.894 4.2l-2.734 7.03zM79.636.398l7.845 17.758h-3.624l-1.843-4.322h-7.897l-1.716 4.322h-3.599L76.126.4h3.51z"/>
        <g>
            <path d="M100.666.399l10.553 12.394V.4h3.357v17.758h-2.95L101.009 5.56v12.597h-3.357V.4zM123.683 11.23h5.735l-3-7.03-2.735 7.03zM128.16.398l7.845 17.758h-3.623l-1.844-4.322h-7.896l-1.717 4.322h-3.598L124.65.4h3.51zM142.2.399v8.199h.076l6.51-8.2h3.904l-6.612 8.365 8.57 9.394h-4.4l-8.048-8.72v8.72h-3.433V.4zM161.266 11.23H167l-3-7.03-2.734 7.03zM165.742.398l7.845 17.758h-3.624l-1.844-4.322h-7.896l-1.716 4.322h-3.599L162.232.4h3.51zM181.421.399v17.085c0 1.898-.508 3.417-1.526 4.557-1.017 1.14-2.365 1.71-4.043 1.71h-.337a2.43 2.43 0 0 1-.337-.026l-.242-2.961c2.035 0 3.052-1.192 3.052-3.573V.4h3.433zM187.6 18.157h3.432V.4H187.6zM200.224.399l5.836 7.004L211.896.4h3.065v17.758h-3.434V5.687h-.101l-5.137 6.254h-.483l-5.137-6.254h-.102v12.47h-3.433V.4zM223.82 11.23h5.735l-3-7.03-2.735 7.03zM228.296.398l7.845 17.758h-3.623l-1.844-4.322h-7.896l-1.717 4.322h-3.598L224.787.4h3.51z"/>
        </g>
    </g>
</svg>
