<svg xmlns="http://www.w3.org/2000/svg" width="104" height="12" viewBox="0 0 104 12">
    <path fill="#FFF" fill-rule="evenodd" d="M4.03 1.45V11H2.186V1.45h1.846zm3.993 0v8.108h4.635V11h-6.48V1.45h1.845zm7.745 0v8.108h4.635V11h-6.48V1.45h1.845zm7.677 0v5.558c0 .57.085 1.023.256 1.36.171.337.45.615.838.834.387.219.838.328 1.353.328.565 0 1.045-.103 1.44-.31.393-.208.682-.49.864-.848.182-.358.273-.854.273-1.487V1.45h1.846v5.674c0 1.285-.385 2.273-1.155 2.963s-1.86 1.036-3.268 1.036c-.884 0-1.65-.157-2.3-.472a3.35 3.35 0 0 1-1.487-1.363c-.342-.595-.513-1.294-.513-2.096V1.45h1.853zm11.876-.123c.93 0 1.825.233 2.686.697v1.641c-.989-.597-1.866-.895-2.632-.895-.465 0-.828.09-1.09.27-.262.18-.393.42-.393.72 0 .36.244.693.731.999.137.09.663.346 1.58.765.783.37 1.348.78 1.695 1.23.346.452.52.994.52 1.628 0 .82-.296 1.482-.886 1.986-.59.503-1.355.755-2.293.755-.611 0-1.136-.067-1.576-.202-.44-.134-.933-.365-1.48-.693V8.409c1.02.848 1.982 1.272 2.885 1.272.45 0 .815-.098 1.093-.294.278-.196.417-.456.417-.78 0-.442-.241-.802-.724-1.08-.401-.218-.918-.48-1.552-.786-.752-.342-1.314-.74-1.685-1.196a2.437 2.437 0 0 1-.557-1.586c0-.802.298-1.441.895-1.917.597-.477 1.386-.715 2.366-.715zm12.532.123v1.443h-3.39V11h-1.846V2.893h-3.39V1.45h8.626zm4.84 0c.898 0 1.63.249 2.195.745.565.497.847 1.144.847 1.942 0 .542-.14 1.015-.42 1.418-.28.403-.696.721-1.248.954.306.164.577.387.814.67.237.282.53.758.882 1.428.583 1.158 1.016 1.955 1.298 2.393h-2.057c-.141-.21-.333-.545-.574-1.005-.529-1.016-.916-1.7-1.163-2.054-.246-.353-.483-.604-.71-.752a1.41 1.41 0 0 0-.787-.222h-.67V11h-1.845V1.45h3.438zm-.417 4.074c.483 0 .863-.12 1.138-.362.276-.241.414-.572.414-.991 0-.438-.137-.765-.41-.981-.274-.217-.663-.325-1.17-.325h-1.147v2.66h1.175zM63.411 1.45L67.63 11h-1.948l-.991-2.324h-4.246L59.522 11h-1.935l3.938-9.55h1.886zm-2.406 5.824h3.083l-1.613-3.78-1.47 3.78zM75.542 1.45v1.443h-3.39V11h-1.846V2.893h-3.391V1.45h8.627zm3.188 0V11h-1.846V1.45h1.846zm7.041-.123c.989 0 1.879.204 2.67.612.79.408 1.42.996 1.89 1.764.469.768.704 1.61.704 2.526 0 .893-.23 1.721-.687 2.484a4.726 4.726 0 0 1-1.887 1.778c-.8.421-1.701.632-2.704.632-.989 0-1.888-.214-2.696-.643a4.748 4.748 0 0 1-1.89-1.767 4.727 4.727 0 0 1-.677-2.484c0-.875.225-1.698.676-2.468a4.698 4.698 0 0 1 1.867-1.795c.793-.426 1.704-.639 2.734-.639zm-3.37 4.902a3.4 3.4 0 0 0 .43 1.708c.288.506.688.898 1.2 1.176.513.278 1.093.417 1.74.417.98 0 1.785-.307 2.416-.923.632-.615.947-1.408.947-2.378 0-.634-.142-1.205-.427-1.713a2.954 2.954 0 0 0-1.203-1.18 3.63 3.63 0 0 0-1.747-.416c-.647 0-1.229.14-1.746.42-.518.28-.915.673-1.193 1.176-.278.504-.417 1.074-.417 1.713zM94.384 1.45l5.674 6.665V1.45h1.805V11h-1.586l-5.708-6.774V11h-1.805V1.45h1.62z"/>
</svg>
