<svg xmlns="http://www.w3.org/2000/svg" width="48" height="12" viewBox="0 0 48 12">
    <path fill="#FFF" fill-rule="evenodd" d="M3.384 1.45V11H1.538V1.45h1.846zm3.992 0v8.108h4.635V11h-6.48V1.45h1.845zm7.745 0v8.108h4.635V11h-6.48V1.45h1.845zm7.677 0v5.558c0 .57.086 1.023.256 1.36.171.337.45.615.838.834.387.219.838.328 1.353.328.566 0 1.045-.103 1.44-.31.394-.208.682-.49.864-.848.182-.358.274-.854.274-1.487V1.45h1.845v5.674c0 1.285-.385 2.273-1.155 2.963s-1.86 1.036-3.268 1.036c-.884 0-1.65-.157-2.3-.472a3.35 3.35 0 0 1-1.487-1.363c-.341-.595-.512-1.294-.512-2.096V1.45h1.852zm11.876-.123c.93 0 1.825.233 2.686.697v1.641c-.988-.597-1.866-.895-2.631-.895-.465 0-.829.09-1.09.27-.263.18-.394.42-.394.72 0 .36.244.693.732.999.136.09.663.346 1.579.765.784.37 1.349.78 1.695 1.23.346.452.52.994.52 1.628 0 .82-.295 1.482-.886 1.986-.59.503-1.354.755-2.293.755-.61 0-1.136-.067-1.576-.202-.44-.134-.933-.365-1.48-.693V8.409c1.021.848 1.983 1.272 2.885 1.272.451 0 .816-.098 1.094-.294.278-.196.417-.456.417-.78 0-.442-.242-.802-.725-1.08-.4-.218-.918-.48-1.552-.786-.752-.342-1.313-.74-1.685-1.196a2.437 2.437 0 0 1-.557-1.586c0-.802.299-1.441.896-1.917.597-.477 1.385-.715 2.365-.715zm12.533.123v1.443h-3.39V11H41.97V2.893h-3.39V1.45h8.627z"/>
</svg>
