<svg xmlns="http://www.w3.org/2000/svg" width="102" height="12" viewBox="0 0 102 12">
    <path fill="#FFF" fill-rule="evenodd" d="M5.913 1.45c.893 0 1.619.259 2.177.776s.837 1.184.837 2c0 .824-.282 1.492-.847 2.003-.565.51-1.31.765-2.236.765H4.067V11H2.221V1.45h3.692zm-.458 4.102c.492 0 .876-.113 1.152-.339.275-.225.413-.559.413-1.001 0-.88-.565-1.32-1.695-1.32H4.067v2.66h1.388zm6.688-4.102v4.02h4.956V1.45h1.846V11h-1.846V6.967h-4.956V11h-1.846V1.45h1.846zm13.602-.123c.989 0 1.878.204 2.67.612.79.408 1.42.996 1.89 1.764.469.768.703 1.61.703 2.526 0 .893-.229 1.721-.687 2.484a4.726 4.726 0 0 1-1.886 1.778c-.8.421-1.701.632-2.704.632-.989 0-1.888-.214-2.697-.643a4.748 4.748 0 0 1-1.89-1.767 4.727 4.727 0 0 1-.677-2.484c0-.875.226-1.698.677-2.468a4.698 4.698 0 0 1 1.866-1.795c.793-.426 1.705-.639 2.735-.639zm-3.37 4.902a3.4 3.4 0 0 0 .43 1.708c.287.506.687.898 1.2 1.176.513.278 1.092.417 1.74.417.98 0 1.785-.307 2.416-.923.631-.615.947-1.408.947-2.378 0-.634-.143-1.205-.427-1.713a2.954 2.954 0 0 0-1.203-1.18 3.63 3.63 0 0 0-1.747-.416c-.647 0-1.23.14-1.747.42-.517.28-.914.673-1.192 1.176-.278.504-.417 1.074-.417 1.713zM39.8 1.45v1.443h-3.39V11h-1.846V2.893h-3.39V1.45H39.8zm5.896-.123c.989 0 1.879.204 2.67.612.79.408 1.42.996 1.89 1.764.469.768.704 1.61.704 2.526 0 .893-.23 1.721-.687 2.484a4.726 4.726 0 0 1-1.887 1.778c-.8.421-1.701.632-2.704.632-.989 0-1.888-.214-2.696-.643a4.748 4.748 0 0 1-1.89-1.767 4.727 4.727 0 0 1-.677-2.484c0-.875.225-1.698.676-2.468a4.698 4.698 0 0 1 1.867-1.795c.793-.426 1.704-.639 2.734-.639zm-3.37 4.902a3.4 3.4 0 0 0 .43 1.708c.288.506.688.898 1.2 1.176.513.278 1.093.417 1.74.417.98 0 1.785-.307 2.416-.923.632-.615.947-1.408.947-2.378 0-.634-.142-1.205-.427-1.713a2.954 2.954 0 0 0-1.203-1.18 3.63 3.63 0 0 0-1.747-.416c-.647 0-1.229.14-1.746.42-.518.28-.915.673-1.193 1.176-.278.504-.417 1.074-.417 1.713zM57.7 1.327c1.176 0 2.342.262 3.5.786v1.689c-1.158-.588-2.297-.882-3.418-.882-.697 0-1.317.139-1.86.417a2.995 2.995 0 0 0-1.26 1.2 3.454 3.454 0 0 0-.448 1.746c0 .975.324 1.76.974 2.355.65.595 1.505.892 2.567.892.291 0 .57-.025.837-.075.267-.05.584-.146.954-.287V7.582h-1.58V6.14h3.425v3.937c-.47.328-1.033.585-1.692.77a7.576 7.576 0 0 1-2.054.276c-1.007 0-1.92-.207-2.738-.622a4.665 4.665 0 0 1-1.914-1.743 4.693 4.693 0 0 1-.687-2.502c0-.934.232-1.78.694-2.536a4.708 4.708 0 0 1 1.935-1.764c.827-.42 1.749-.629 2.765-.629zm9.399.123c.897 0 1.629.249 2.194.745.565.497.848 1.144.848 1.942 0 .542-.14 1.015-.42 1.418-.281.403-.697.721-1.248.954.305.164.576.387.813.67.237.282.531.758.882 1.428.583 1.158 1.016 1.955 1.299 2.393h-2.058c-.141-.21-.333-.545-.574-1.005-.529-1.016-.916-1.7-1.162-2.054-.246-.353-.483-.604-.711-.752a1.41 1.41 0 0 0-.786-.222h-.67V11H63.66V1.45H67.1zm-.417 4.074c.483 0 .862-.12 1.138-.362.275-.241.413-.572.413-.991 0-.438-.136-.765-.41-.981-.273-.217-.663-.325-1.169-.325h-1.148v2.66h1.176zM77.617 1.45L81.834 11h-1.948l-.991-2.324H74.65L73.727 11h-1.935l3.938-9.55h1.887zM75.21 7.274h3.083l-1.613-3.78-1.47 3.78zM86.547 1.45c.893 0 1.619.259 2.177.776s.837 1.184.837 2c0 .824-.282 1.492-.847 2.003-.565.51-1.31.765-2.236.765h-1.777V11h-1.846V1.45h3.692zm-.458 4.102c.492 0 .876-.113 1.152-.339.275-.225.413-.559.413-1.001 0-.88-.565-1.32-1.695-1.32H84.7v2.66h1.388zm6.888-4.102v4.02h4.956V1.45h1.846V11h-1.846V6.967h-4.956V11H91.13V1.45h1.846z"/>
</svg>
