<svg xmlns="http://www.w3.org/2000/svg" width="227" height="116" viewBox="0 0 227 116">
    <g fill="#050101" fill-rule="evenodd">
        <path d="M82.303 1.965v15.018h4.842c2.22 0 4.07-.685 5.549-2.055s2.218-3.185 2.218-5.448c0-2.212-.73-4.018-2.188-5.418-1.458-1.398-3.347-2.097-5.665-2.097h-4.756zM80.976.854h6.009c3.04 0 5.36.802 6.962 2.407 1.602 1.604 2.403 3.677 2.403 6.22 0 2.492-.793 4.551-2.378 6.175-1.586 1.625-3.837 2.437-6.754 2.437h-6.242V.854zM109.5.854v1.11h-8.038v6.899h7.829v1.123h-7.829v6.996h8.234v1.111h-9.561V.854zM122.537 1.718v1.468c-1.491-.88-2.773-1.32-3.846-1.32-1.033 0-1.896.314-2.588.944-.692.63-1.038 1.41-1.038 2.339 0 .666.205 1.267.615 1.801.409.536 1.265 1.049 2.568 1.543 1.303.493 2.253.905 2.851 1.234.598.329 1.107.807 1.524 1.43.418.627.627 1.438.627 2.432 0 1.326-.484 2.443-1.45 3.357-.967.913-2.147 1.37-3.54 1.37-1.426 0-2.892-.501-4.4-1.506v-1.567c1.664 1.227 3.106 1.838 4.327 1.838 1.015 0 1.874-.33 2.575-.993a3.223 3.223 0 0 0 1.05-2.437c0-.733-.217-1.393-.652-1.98-.434-.59-1.314-1.14-2.641-1.65-1.327-.512-2.275-.923-2.844-1.237a4.198 4.198 0 0 1-1.452-1.338c-.398-.58-.596-1.325-.596-2.239 0-1.265.483-2.344 1.45-3.236.967-.892 2.13-1.34 3.49-1.34 1.336 0 2.659.363 3.97 1.087M128.262 18.093h1.328V.854h-1.328zM149.022 2.1v1.506c-2.032-1.16-4.06-1.74-6.084-1.74-2.171 0-3.978.724-5.42 2.172-1.442 1.448-2.163 3.262-2.163 5.442s.713 3.992 2.139 5.436c1.425 1.443 3.363 2.165 5.813 2.165 1.77 0 3.339-.353 4.707-1.061v-4.652h-3.625v-1.11h4.964v6.601c-2.023.971-4.055 1.456-6.095 1.456-2.664 0-4.886-.846-6.668-2.541-1.782-1.695-2.673-3.809-2.673-6.343 0-2.518.875-4.613 2.624-6.288 1.749-1.673 3.947-2.51 6.594-2.51 1.802 0 3.764.489 5.887 1.467M169.212.854v17.24h-1.092L155.067 3.025v15.067h-1.327V.854h1.124l13.021 15.068V.854zM183.943.854v1.11h-8.037v6.899h7.829v1.123h-7.829v6.996h8.234v1.111h-9.561V.854zM190.108 1.965v6.75h2.851c1.45 0 2.559-.294 3.324-.883.767-.587 1.15-1.42 1.15-2.498 0-1.062-.39-1.888-1.168-2.48-.778-.593-1.896-.89-3.355-.89h-2.802zM188.781.854h4.4c1.843 0 3.252.401 4.227 1.203.975.802 1.463 1.887 1.463 3.252 0 1.991-1.09 3.39-3.27 4.196.566.27 1.328 1.147 2.286 2.628l3.884 5.96H200.2l-2.991-4.725c-1-1.58-1.777-2.565-2.334-2.955-.557-.391-1.372-.588-2.445-.588h-2.322v8.268h-1.327V.854zM0 18.093h1.328V.854H0zM19.304.73l-7.937 17.363h1.393l2.706-5.96h8.396l2.716 5.96h1.393L20.033.731h-.73zm.353 2.173l3.698 8.12H15.97l3.687-8.12zM45.418.854L38.896 8.86 32.333.854h-1.328v17.239h1.328V2.803l6.556 8.059 6.532-8.058v15.289h1.34V.853zM63.743.73l-7.937 17.363H57.2l2.705-5.96h8.397l2.716 5.96h1.392L64.471.731h-.728zm.352 2.173l3.7 8.12h-7.386l3.686-8.12zM5.617 35.953v13.413h.125l10.65-13.413h6.387L11.962 49.636l14.021 15.368h-7.198L5.617 50.74v14.265H0V35.953zM48.402 35.663v4.388H35.234v7.632H47.84v4.388H35.234v8.256h13.46v4.388H29.616V35.663zM60.357 35.663L77.623 55.94V35.663h5.493v29.052h-4.827l-17.37-20.608v20.608h-5.492V35.663zM113.4 35.663v4.388H103.08v24.664h-5.616V40.05h-10.32v-4.388zM122.3 53.381h9.383l-4.91-11.5-4.472 11.5zm7.323-17.718l12.836 29.052h-5.929l-3.016-7.07h-12.92l-2.808 7.07H111.9l11.983-29.052h5.741zM4.93 76.922l17.266 20.276V76.922h5.493v29.051h-4.827L5.492 85.365v20.608H0V76.922zM42.589 94.64h9.382l-4.91-11.5-4.472 11.5zm7.322-17.718l12.835 29.051h-5.928l-3.017-7.07H40.882l-2.808 7.07h-5.887L44.17 76.922h5.741zM72.883 76.922v13.413h.124l10.651-13.413h6.387L79.227 90.605l14.022 15.368H86.05L72.883 91.708v14.265h-5.618V76.922zM104.076 94.64h9.382l-4.91-11.5-4.472 11.5zm7.322-17.718l12.835 29.051h-5.928l-3.016-7.07h-12.92l-2.807 7.07h-5.888l11.983-29.051h5.741zM137.051 76.922v27.95c0 3.104-.832 5.59-2.496 7.454-1.664 1.865-3.87 2.797-6.616 2.797h-.55c-.174 0-.358-.014-.552-.04l-.395-4.846c3.328 0 4.992-1.949 4.992-5.844V76.922h5.617zM147.159 105.973h5.617v-29.05h-5.617zM167.813 76.922l9.55 11.458 9.547-11.458h5.014v29.051h-5.617v-20.4h-.166l-8.405 10.231h-.79l-8.404-10.231h-.167v20.4h-5.617V76.922zM206.419 94.64h9.382l-4.91-11.5-4.472 11.5zm7.322-17.718l12.836 29.051h-5.929l-3.016-7.07h-12.92l-2.807 7.07h-5.888L208 76.922h5.741z"/>
    </g>
</svg>
