<svg xmlns="http://www.w3.org/2000/svg" width="341" height="169" viewBox="0 0 341 169">
    <g fill="none" fill-rule="evenodd">
        <path fill="#FEFEFE" d="M0 30.612h2.241V1.445H0z"/>
        <path fill="#050101" d="M0 30.612h2.241V1.445H0zM32.59 1.236l-13.4 29.376h2.352l4.569-10.084h14.174l4.586 10.084h2.35l-13.4-29.376H32.59zm.596 3.675l6.244 13.737H26.962l6.224-13.737zM76.676 1.445L65.666 14.99 54.585 1.445h-2.242V30.61h2.242V4.744l11.069 13.633L76.682 4.744V30.61h2.262V1.445zM107.614 1.236L94.215 30.612h2.35l4.569-10.084h14.175l4.586 10.084h2.35L108.844 1.236h-1.23zm.595 3.675l6.245 13.737h-12.47l6.225-13.737zM138.948 2.255v25.41h8.174c3.749 0 6.871-1.16 9.369-3.477 2.496-2.317 3.744-5.388 3.744-9.217 0-3.744-1.23-6.8-3.693-9.167-2.462-2.365-5.65-3.549-9.564-3.549h-8.03zm-2.24-1.879h10.144c5.132 0 9.05 1.358 11.755 4.072 2.703 2.714 4.056 6.221 4.056 10.523 0 4.217-1.339 7.701-4.015 10.449-2.677 2.75-6.477 4.123-11.402 4.123h-10.539V.376zM184.863.376v1.88h-13.569v11.67h13.216v1.9h-13.216v11.838h13.9v1.879h-16.141V.376zM206.874 1.838v2.484c-2.518-1.488-4.683-2.234-6.494-2.234-1.744 0-3.2.532-4.369 1.598-1.168 1.064-1.752 2.384-1.752 3.956 0 1.127.345 2.144 1.038 3.048.69.906 2.136 1.774 4.336 2.61 2.199.835 3.803 1.532 4.813 2.088 1.01.557 1.868 1.365 2.573 2.421.705 1.06 1.058 2.43 1.058 4.113 0 2.243-.817 4.134-2.448 5.68-1.633 1.544-3.625 2.317-5.976 2.317-2.407 0-4.883-.847-7.428-2.547V24.72c2.808 2.076 5.243 3.11 7.304 3.11 1.714 0 3.163-.559 4.347-1.68 1.182-1.12 1.774-2.495 1.774-4.123a5.51 5.51 0 0 0-1.1-3.351c-.734-.996-2.22-1.927-4.46-2.791-2.24-.865-3.84-1.562-4.802-2.092-.963-.53-1.78-1.283-2.45-2.264-.672-.982-1.007-2.242-1.007-3.788 0-2.14.815-3.966 2.449-5.476C195.912.755 197.875 0 200.17 0c2.255 0 4.489.614 6.703 1.838M216.54 29.543h2.24V.376h-2.24zM251.586 2.485v2.547c-3.43-1.962-6.854-2.944-10.27-2.944-3.667 0-6.716 1.225-9.15 3.674-2.435 2.451-3.652 5.52-3.652 9.208 0 3.69 1.203 6.754 3.61 9.197 2.407 2.442 5.677 3.664 9.814 3.664 2.987 0 5.637-.598 7.946-1.796v-7.87h-6.12v-1.88h8.382v11.17c-3.417 1.643-6.847 2.464-10.29 2.464-4.498 0-8.249-1.433-11.257-4.3-3.008-2.868-4.513-6.444-4.513-10.732 0-4.26 1.477-7.805 4.43-10.638C233.468 1.418 237.18 0 241.648 0c3.042 0 6.355.828 9.938 2.484M285.673.376v29.167h-1.844L261.792 4.05v25.492h-2.241V.376h1.898l21.984 25.493V.376zM310.543.376v1.88h-13.57v11.67h13.217v1.9h-13.216v11.838h13.9v1.879h-16.142V.376zM320.95 2.255v11.421h4.813c2.449 0 4.32-.497 5.613-1.493 1.293-.994 1.94-2.403 1.94-4.228 0-1.796-.657-3.194-1.971-4.197-1.314-1.001-3.202-1.503-5.665-1.503h-4.73zM318.71.376h7.427c3.112 0 5.491.679 7.138 2.035 1.645 1.358 2.469 3.193 2.469 5.502 0 3.37-1.84 5.735-5.52 7.1.955.458 2.241 1.94 3.86 4.446l6.556 10.084h-2.653l-5.049-7.994c-1.687-2.672-3-4.341-3.94-5-.941-.662-2.316-.995-4.128-.995h-3.92v13.989h-2.24V.376zM8.438 50.98v20.157h.186l16-20.156h9.595l-16.25 20.562 21.063 23.094H28.218L8.436 73.2v21.437H0V50.98zM72.71 50.98v6.595H52.929v11.468h18.937v6.594H52.929v12.407h20.218v6.593H44.491V50.98zM90.669 50.98l25.937 30.47V50.98h8.25v43.657h-7.25L91.513 63.669v30.968h-8.25V50.98zM170.349 50.98v6.595h-15.5v37.062h-8.437V57.575H130.91V50.98zM183.72 77.606h14.095l-7.375-17.281-6.72 17.28zm11-26.625l19.282 43.656h-8.906l-4.531-10.625h-19.407l-4.22 10.625h-8.842l18-43.656h8.625zM7.406 110.98l25.937 30.47v-30.47h8.251v43.657h-7.25L8.25 123.669v30.968H0V110.98zM63.977 137.606H78.07l-7.375-17.281-6.72 17.28zm11-26.625l19.28 43.656h-8.905l-4.531-10.625H61.414l-4.218 10.625h-8.844l18-43.656h8.625zM109.484 110.98v20.157h.187l16-20.156h9.594l-16.25 20.562 21.063 23.094h-10.813l-19.78-21.437v21.437h-8.439V110.98zM156.343 137.606h14.094l-7.375-17.281-6.72 17.28zm11-26.625l19.28 43.656h-8.905l-4.531-10.625H153.78l-4.218 10.625h-8.844l18-43.656h8.625zM205.879 110.98v42c0 4.667-1.25 8.4-3.75 11.204-2.5 2.802-5.813 4.203-9.938 4.203h-.828c-.26 0-.536-.021-.828-.062l-.594-7.281c5 0 7.5-2.928 7.5-8.782V110.98h8.438zM221.062 154.637h8.438v-43.656h-8.438zM252.09 110.98l14.344 17.22 14.343-17.22h7.532v43.657h-8.438V123.98h-.25l-12.625 15.375h-1.187l-12.625-15.375h-.25v30.656h-8.438V110.98zM310.083 137.606h14.094l-7.375-17.281-6.719 17.28zm11-26.625l19.281 43.656h-8.906l-4.531-10.625H307.52l-4.218 10.625h-8.844l18-43.656h8.625z"/>
    </g>
</svg>
