<svg xmlns="http://www.w3.org/2000/svg" width="16" height="12" viewBox="0 0 16 12">
    <path fill="#FFF" fill-rule="evenodd" d="M3.471 1.45v5.558c0 .57.086 1.023.257 1.36.17.337.45.615.837.834.387.219.838.328 1.353.328.566 0 1.045-.103 1.44-.31.394-.208.682-.49.864-.848.182-.358.274-.854.274-1.487V1.45h1.845v5.674c0 1.285-.385 2.273-1.155 2.963s-1.86 1.036-3.268 1.036c-.884 0-1.65-.157-2.3-.472a3.35 3.35 0 0 1-1.487-1.363c-.341-.595-.512-1.294-.512-2.096V1.45H3.47zm10.794 0V11H12.42V1.45h1.846z"/>
</svg>
