<svg xmlns="http://www.w3.org/2000/svg" width="43" height="12" viewBox="0 0 43 12">
    <path fill="#FFF" fill-rule="nonzero" d="M4.829 11.123c1.408 0 2.497-.345 3.267-1.036.77-.69 1.156-1.678 1.156-2.963V1.45H7.406v5.435c0 .633-.091 1.129-.273 1.487-.183.357-.47.64-.865.847-.394.208-.874.311-1.44.311-.514 0-.965-.11-1.353-.328-.387-.219-.666-.497-.837-.834-.17-.337-.256-.79-.256-1.36V1.45H.529v5.742c0 .802.171 1.5.513 2.096a3.35 3.35 0 0 0 1.487 1.363c.649.315 1.416.472 2.3.472zM13.176 11V1.45H11.33V11h1.846zm3.921.123l2.55-9.796H18.43l-2.55 9.796h1.217zm9.493 0c1.408 0 2.497-.345 3.268-1.036.77-.69 1.155-1.678 1.155-2.963V1.45h-1.846v5.435c0 .633-.091 1.129-.273 1.487-.183.357-.47.64-.865.847-.394.208-.874.311-1.439.311-.515 0-.966-.11-1.354-.328-.387-.219-.666-.497-.837-.834-.17-.337-.256-.79-.256-1.36V1.45H22.29v5.742c0 .802.171 1.5.513 2.096a3.35 3.35 0 0 0 1.487 1.363c.65.315 1.416.472 2.3.472zM34.197 11l2.899-3.568L39.994 11h2.338l-4.088-4.942 3.74-4.608h-2.297l-2.591 3.234-2.632-3.234H32.14l3.78 4.608L31.873 11h2.324z"/>
</svg>
