<svg xmlns="http://www.w3.org/2000/svg" width="34" height="12" viewBox="0 0 34 12">
    <path fill="#FFF" fill-rule="evenodd" d="M3.056 1.45l2.378 5.893L7.936 1.45h1.559l2.516 5.913 2.372-5.913h1.886l-3.93 9.673h-.622L8.709 4.041l-3.022 7.082h-.601L1.148 1.45h1.908zm20.294 0v1.443h-4.327V5.4h4.142v1.443h-4.142v2.714h4.422V11h-6.268V1.45h6.173zm5.318 0c.875 0 1.588.228 2.14.684.551.456.827 1.025.827 1.709 0 .437-.115.822-.345 1.155-.23.333-.564.597-1.002.793v.082c.666.15 1.184.448 1.555.892.372.444.557.965.557 1.562 0 .529-.135 1.002-.406 1.419-.271.417-.647.73-1.128.94-.481.21-1.047.314-1.699.314h-3.999V1.45h3.5zm-.492 3.965c.488 0 .873-.116 1.155-.349.283-.232.424-.556.424-.97 0-.37-.13-.662-.39-.879-.26-.216-.601-.324-1.025-.324h-1.326v2.522h1.162zm.43 4.143c.625 0 1.097-.118 1.416-.352.319-.235.478-.58.478-1.036 0-.406-.158-.726-.475-.96-.317-.235-.742-.353-1.275-.353h-1.736v2.7h1.593z"/>
</svg>
