<svg xmlns="http://www.w3.org/2000/svg" width="99" height="24" viewBox="0 0 99 24">
    <path fill="#000" fill-rule="evenodd" d="M4.625 1.172v9.187h11.328V1.172h4.219V23h-4.219v-9.219H4.625V23H.406V1.172h4.219zM37.772.89c2.26 0 4.294.466 6.101 1.398a10.762 10.762 0 0 1 4.32 4.031c1.074 1.756 1.61 3.68 1.61 5.774 0 2.041-.523 3.935-1.57 5.68-1.047 1.744-2.485 3.098-4.313 4.062-1.828.963-3.888 1.445-6.18 1.445-2.26 0-4.314-.49-6.163-1.468-1.85-.98-3.29-2.326-4.32-4.04-1.032-1.713-1.548-3.606-1.548-5.68 0-2 .516-3.88 1.547-5.64a10.739 10.739 0 0 1 4.266-4.101C33.334 1.378 35.418.89 37.772.89zm-7.703 11.203c0 1.448.328 2.75.984 3.906a6.842 6.842 0 0 0 2.742 2.688c1.172.635 2.498.953 3.977.953 2.24 0 4.08-.703 5.523-2.11 1.443-1.406 2.164-3.218 2.164-5.437 0-1.448-.325-2.753-.976-3.914a6.752 6.752 0 0 0-2.75-2.696c-1.182-.635-2.513-.953-3.992-.953-1.48 0-2.81.32-3.993.961a6.677 6.677 0 0 0-2.726 2.688c-.636 1.15-.953 2.455-.953 3.914zM59.153 1.172l7.172 8.61 7.172-8.61h3.766V23h-4.22V7.672h-.124l-6.313 7.687h-.593L59.7 7.672h-.125V23h-4.219V1.172h3.797zm39.031 0v3.297h-9.89v5.734h9.469V13.5h-9.47v6.203h10.11V23H84.075V1.172h14.11z"/>
</svg>
