<svg xmlns="http://www.w3.org/2000/svg" width="64" height="10" viewBox="0 0 64 10">
    <g fill="#000" fill-rule="nonzero">
        <path d="M5.76 9V7.934H2.074V.814H.902V9zM12.417 9.094c1.293 0 2.365-.396 3.214-1.187.85-.79 1.275-1.79 1.275-2.997 0-1.207-.421-2.21-1.263-3.012-.842-.8-1.896-1.2-3.161-1.2-1.266 0-2.313.4-3.14 1.2-.829.801-1.243 1.813-1.243 3.036 0 1.191.411 2.182 1.233 2.973.823.791 1.851 1.187 3.085 1.187zm.077-1.078c-.91 0-1.668-.293-2.274-.88-.605-.585-.908-1.32-.908-2.202 0-.91.302-1.659.905-2.245.604-.585 1.374-.878 2.312-.878.89 0 1.641.295 2.253.887.611.592.917 1.322.917 2.189 0 .89-.306 1.634-.917 2.232-.612.598-1.374.897-2.288.897zM20.317 9l1.031-2.426h3.48L25.919 9h1.202L23.458.768h-.826L19.116 9h1.201zm4.031-3.469h-2.543l1.225-2.965 1.318 2.965zM32.304 8.988c.726 0 1.219-.02 1.476-.061.258-.041.541-.122.85-.243.527-.2.99-.495 1.389-.885.39-.38.691-.819.902-1.319a4 4 0 0 0 .316-1.57c0-.765-.19-1.473-.574-2.12a3.78 3.78 0 0 0-1.547-1.475c-.648-.334-1.529-.5-2.642-.5h-2.76v8.173h2.59zm.082-1.043h-1.5V1.857h1.465c.562 0 .97.022 1.224.065.254.043.523.13.806.264.283.132.534.302.753.51.594.554.89 1.27.89 2.15 0 .894-.288 1.634-.867 2.22-.18.18-.378.331-.594.455a3.209 3.209 0 0 1-.812.304c-.324.08-.78.12-1.365.12zM41.806 9V.814h-1.172V9zM46.68 9V2.701L52.151 9h1.008V.814h-1.114v6.352L46.526.814h-.949V9zM60.526 9.094c.992 0 1.992-.219 3-.656v-3.47h-2.748v1.044h1.576v1.705l-.111.035c-.652.215-1.213.322-1.682.322-.964 0-1.754-.295-2.367-.885-.613-.59-.92-1.35-.92-2.279 0-.887.307-1.635.92-2.244.613-.61 1.367-.914 2.262-.914.96 0 1.93.283 2.906.85V1.406c-.633-.265-1.156-.448-1.57-.548-.414-.1-.852-.149-1.313-.149-1.265 0-2.318.406-3.158 1.219-.84.812-1.26 1.83-1.26 3.052 0 1.16.406 2.136 1.216 2.927.81.791 1.894 1.187 3.25 1.187z"/>
    </g>
</svg>
