<svg xmlns="http://www.w3.org/2000/svg" width="171" height="24" viewBox="0 0 171 24">
    <path fill="#000" fill-rule="evenodd" d="M12.86.89c1.239 0 2.452.141 3.64.422 1.188.282 2.469.76 3.844 1.438v3.969C19 5.948 17.758 5.39 16.617 5.047a12.306 12.306 0 0 0-3.57-.516c-1.552 0-2.953.32-4.203.961-1.25.64-2.222 1.544-2.914 2.711-.693 1.167-1.04 2.464-1.04 3.89 0 1.46.344 2.766 1.032 3.923.687 1.156 1.656 2.05 2.906 2.68 1.25.63 2.656.945 4.219.945 1.198 0 2.341-.172 3.43-.516 1.088-.344 2.46-.964 4.117-1.86v3.97c-1.417.739-2.719 1.265-3.907 1.578-1.187.312-2.572.468-4.156.468-2.302 0-4.36-.458-6.172-1.375a10.318 10.318 0 0 1-4.273-3.96C1.049 16.22.53 14.332.53 12.28c0-2.198.534-4.172 1.602-5.922S4.669 3.26 6.539 2.313C8.41 1.365 10.516.89 12.86.89zm25.024 0c2.26 0 4.295.467 6.102 1.4a10.762 10.762 0 0 1 4.32 4.03c1.073 1.756 1.61 3.68 1.61 5.774 0 2.041-.524 3.935-1.57 5.68-1.048 1.744-2.485 3.098-4.313 4.062-1.828.963-3.888 1.445-6.18 1.445-2.26 0-4.315-.49-6.164-1.468-1.849-.98-3.289-2.326-4.32-4.04-1.032-1.713-1.547-3.606-1.547-5.68 0-2 .515-3.88 1.547-5.64a10.739 10.739 0 0 1 4.265-4.101C33.447 1.378 35.53.89 37.884.89zm-7.703 11.204c0 1.448.328 2.75.985 3.906a6.842 6.842 0 0 0 2.742 2.688c1.172.635 2.497.953 3.976.953 2.24 0 4.081-.703 5.524-2.11 1.443-1.406 2.164-3.218 2.164-5.437 0-1.448-.326-2.753-.977-3.914a6.752 6.752 0 0 0-2.75-2.696c-1.182-.635-2.513-.953-3.992-.953s-2.81.32-3.992.961a6.677 6.677 0 0 0-2.727 2.688c-.635 1.15-.953 2.455-.953 3.914zm28.99-10.922l12.97 15.234V1.172h4.125V23H72.64L59.594 7.516V23h-4.125V1.172h3.703zm41.6 0v3.297h-7.75V23h-4.218V4.469h-7.75V1.172h19.719zm13.904 0L124.315 23h-4.453l-2.265-5.313h-9.703L105.784 23h-4.422l9-21.828h4.313zm-5.5 13.312h7.047l-3.688-8.64-3.359 8.64zM138.878.891c1.24 0 2.453.14 3.64.421 1.188.282 2.47.76 3.845 1.438v3.969c-1.344-.771-2.586-1.328-3.727-1.672a12.306 12.306 0 0 0-3.57-.516c-1.552 0-2.953.32-4.203.961-1.25.64-2.222 1.544-2.915 2.711-.692 1.167-1.039 2.464-1.039 3.89 0 1.46.344 2.766 1.032 3.923.687 1.156 1.656 2.05 2.906 2.68 1.25.63 2.656.945 4.219.945 1.198 0 2.34-.172 3.43-.516 1.088-.344 2.46-.964 4.117-1.86v3.97c-1.417.739-2.72 1.265-3.907 1.578-1.187.312-2.573.468-4.156.468-2.302 0-4.36-.458-6.172-1.375a10.318 10.318 0 0 1-4.273-3.96c-1.037-1.725-1.555-3.613-1.555-5.665 0-2.198.534-4.172 1.602-5.922 1.067-1.75 2.536-3.099 4.406-4.046 1.87-.948 3.976-1.422 6.32-1.422zm31.66.28V4.47h-7.75V23h-4.22V4.469h-7.75V1.172h19.72z"/>
</svg>
