<svg xmlns="http://www.w3.org/2000/svg" width="123" height="24" viewBox="0 0 123 24">
    <path fill="#000" fill-rule="evenodd" d="M13.469 1.172L23.109 23h-4.453l-2.265-5.313H6.688L4.578 23H.156l9-21.828h4.313zm-5.5 13.312h7.047l-3.688-8.64-3.36 8.64zM34.972 1.172c2 0 3.63.52 4.89 1.562 1.26 1.042 1.891 2.344 1.891 3.907 0 1-.263 1.88-.789 2.64-.526.76-1.289 1.365-2.289 1.813v.187c1.52.344 2.706 1.024 3.555 2.04.849 1.015 1.273 2.205 1.273 3.57 0 1.208-.31 2.289-.93 3.242-.62.953-1.479 1.67-2.578 2.148-1.099.48-2.393.719-3.883.719h-9.14V1.172h8zm-1.125 9.062c1.114 0 1.995-.265 2.64-.796.646-.532.97-1.271.97-2.22 0-.843-.298-1.512-.891-2.007-.594-.495-1.375-.742-2.344-.742H31.19v5.765h2.656zm.984 9.47c1.427 0 2.505-.27 3.235-.806.729-.536 1.093-1.325 1.093-2.367 0-.927-.362-1.659-1.086-2.195-.724-.537-1.695-.805-2.914-.805h-3.968v6.172h3.64zM60.053.89c2.26 0 4.294.466 6.102 1.398a10.762 10.762 0 0 1 4.32 4.031c1.073 1.756 1.61 3.68 1.61 5.774 0 2.041-.524 3.935-1.57 5.68-1.048 1.744-2.485 3.098-4.313 4.062-1.829.963-3.888 1.445-6.18 1.445-2.26 0-4.315-.49-6.164-1.468-1.85-.98-3.29-2.326-4.32-4.04-1.032-1.713-1.547-3.606-1.547-5.68 0-2 .515-3.88 1.547-5.64a10.739 10.739 0 0 1 4.265-4.101C55.616 1.378 57.7.89 60.053.89zM52.35 12.094c0 1.448.328 2.75.984 3.906a6.842 6.842 0 0 0 2.743 2.688c1.171.635 2.497.953 3.976.953 2.24 0 4.08-.703 5.524-2.11 1.442-1.406 2.164-3.218 2.164-5.437 0-1.448-.326-2.753-.977-3.914a6.752 6.752 0 0 0-2.75-2.696c-1.182-.635-2.513-.953-3.992-.953-1.48 0-2.81.32-3.992.961a6.677 6.677 0 0 0-2.727 2.688c-.635 1.15-.953 2.455-.953 3.914zM81.9 1.172v12.703c0 1.302.195 2.339.586 3.11.39.77 1.029 1.406 1.914 1.906s1.917.75 3.094.75c1.291 0 2.388-.237 3.289-.711.9-.474 1.56-1.12 1.976-1.938.417-.818.625-1.95.625-3.398V1.172h4.22V14.14c0 2.937-.881 5.195-2.641 6.773-1.76 1.578-4.25 2.367-7.47 2.367-2.02 0-3.773-.36-5.257-1.078-1.484-.719-2.617-1.758-3.398-3.117-.782-1.36-1.172-2.956-1.172-4.79V1.173H81.9zm40.169 0v3.297h-7.75V23H110.1V4.469h-7.75V1.172h19.719z"/>
</svg>
