<svg xmlns="http://www.w3.org/2000/svg" width="78" height="12" viewBox="0 0 78 12">
    <path fill="#FFF" fill-rule="evenodd" d="M6.164.4c1.344 0 2.677.3 4 .898v1.93C8.841 2.556 7.54 2.22 6.258 2.22c-.797 0-1.505.16-2.125.477-.62.318-1.1.775-1.442 1.371a3.948 3.948 0 0 0-.511 1.996c0 1.115.37 2.012 1.113 2.691.742.68 1.72 1.02 2.934 1.02.333 0 .652-.029.957-.086a6.502 6.502 0 0 0 1.09-.328V7.548H6.468V5.9h3.914v4.5c-.537.375-1.181.668-1.934.879a8.658 8.658 0 0 1-2.347.316c-1.151 0-2.194-.237-3.13-.71C2.039 10.41 1.31 9.745.786 8.891.262 8.038 0 7.085 0 6.032 0 4.966.264 4 .793 3.135c.529-.864 1.266-1.536 2.21-2.015C3.95.639 5.004.4 6.165.4zm12.863 0c1.13 0 2.147.233 3.05.7a5.38 5.38 0 0 1 2.16 2.015 5.43 5.43 0 0 1 .805 2.887 5.42 5.42 0 0 1-.785 2.84 5.4 5.4 0 0 1-2.156 2.03c-.914.482-1.944.723-3.09.723-1.13 0-2.158-.244-3.082-.734-.925-.49-1.645-1.163-2.16-2.02a5.403 5.403 0 0 1-.774-2.84c0-1 .258-1.94.774-2.82a5.37 5.37 0 0 1 2.133-2.05C16.808.642 17.849.4 19.027.4zm-3.852 5.602c0 .724.164 1.375.492 1.953a3.421 3.421 0 0 0 1.371 1.343c.586.318 1.249.477 1.989.477 1.12 0 2.04-.352 2.761-1.055.722-.703 1.082-1.61 1.082-2.718 0-.724-.162-1.377-.488-1.957a3.376 3.376 0 0 0-1.375-1.348c-.591-.318-1.256-.477-1.996-.477s-1.405.16-1.996.48a3.338 3.338 0 0 0-1.363 1.345c-.318.575-.477 1.227-.477 1.957zM36.665.54c1 0 1.814.26 2.444.78.63.522.946 1.173.946 1.954 0 .5-.132.94-.395 1.32-.263.38-.644.683-1.144.907v.093c.76.172 1.352.512 1.777 1.02.424.508.637 1.103.637 1.785 0 .604-.155 1.145-.465 1.621a2.86 2.86 0 0 1-1.29 1.074c-.549.24-1.196.36-1.94.36h-4.57V.54h4zm-.563 4.53c.557 0 .997-.132 1.32-.398.323-.265.484-.635.484-1.109 0-.422-.148-.756-.445-1.004-.297-.247-.688-.37-1.172-.37h-1.516v2.882h1.329zm.492 4.735c.713 0 1.252-.134 1.617-.402s.547-.663.547-1.184c0-.463-.181-.83-.543-1.097-.362-.269-.848-.403-1.457-.403h-1.985v3.086h1.82zM49.042.541l4.82 10.914h-2.226l-1.133-2.657h-4.851l-1.055 2.657h-2.211L46.886.54h2.156zm-2.75 6.656h3.524l-1.844-4.32-1.68 4.32zM61.194.4c.62 0 1.226.07 1.82.21.594.142 1.234.381 1.922.72v1.984c-.672-.385-1.293-.664-1.863-.836a6.153 6.153 0 0 0-1.785-.258c-.777 0-1.477.16-2.102.48-.625.321-1.11.773-1.457 1.356a3.738 3.738 0 0 0-.52 1.946c0 .729.172 1.382.516 1.96a3.463 3.463 0 0 0 1.453 1.34c.625.315 1.328.473 2.11.473a5.66 5.66 0 0 0 1.714-.258c.545-.172 1.23-.482 2.059-.93v1.985c-.708.37-1.36.633-1.953.789-.594.156-1.287.234-2.078.234-1.151 0-2.18-.229-3.086-.687a5.159 5.159 0 0 1-2.137-1.98 5.394 5.394 0 0 1-.777-2.833c0-1.099.267-2.086.8-2.96a5.37 5.37 0 0 1 2.204-2.024C58.968.637 60.022.4 61.194.4zm9.184.14v5.04h.047l4-5.04h2.398l-4.062 5.141 5.266 5.774h-2.704l-4.945-5.36v5.36h-2.11V.54h2.11z"/>
</svg>
