<svg xmlns="http://www.w3.org/2000/svg" width="178" height="14" viewBox="0 0 178 14">
    <path fill="#000" fill-rule="evenodd" d="M5.146.722c1.148 0 2.082.332 2.8.997.717.665 1.076 1.522 1.076 2.571 0 1.06-.363 1.919-1.09 2.575-.726.656-1.684.985-2.874.985H2.773V13H.4V.722h4.746zm-.589 5.273c.633 0 1.127-.145 1.481-.435.355-.29.532-.72.532-1.288 0-1.13-.727-1.696-2.18-1.696H2.773v3.42h1.784zM17.453.722L22.876 13h-2.505l-1.274-2.988h-5.458L12.452 13H9.965L15.027.722h2.426zM14.36 8.21h3.964L16.25 3.35l-1.89 4.86zM31.224.563c1.511 0 3.011.337 4.5 1.011v2.171c-1.489-.756-2.953-1.134-4.395-1.134-.896 0-1.693.179-2.39.536a3.85 3.85 0 0 0-1.622 1.543c-.384.67-.576 1.42-.576 2.246 0 1.253.418 2.263 1.253 3.027.835.765 1.935 1.147 3.3 1.147.375 0 .734-.032 1.077-.096a7.314 7.314 0 0 0 1.226-.37V8.606h-2.03V6.751h4.403v5.062c-.604.422-1.329.752-2.175.99a9.74 9.74 0 0 1-2.642.355c-1.295 0-2.468-.266-3.52-.8-1.051-.533-1.872-1.28-2.46-2.24-.59-.962-.884-2.034-.884-3.218 0-1.2.298-2.288.892-3.26.595-.973 1.424-1.729 2.488-2.268 1.063-.539 2.248-.809 3.555-.809zm16.614.159v1.854h-5.564v3.226H47.6v1.854h-5.326v3.49h5.687V13H39.9V.722h7.937zm11.421 0l7.295 8.569V.721h2.32V13h-2.038l-7.34-8.71V13h-2.32V.722h2.083zM79.066.563c1.271 0 2.415.263 3.432.787a6.053 6.053 0 0 1 2.43 2.268c.604.987.905 2.07.905 3.247a6.098 6.098 0 0 1-.883 3.195 6.076 6.076 0 0 1-2.426 2.285c-1.028.542-2.187.813-3.476.813-1.271 0-2.427-.275-3.467-.826-1.04-.55-1.85-1.308-2.43-2.272a6.078 6.078 0 0 1-.87-3.195c0-1.125.29-2.182.87-3.173a6.04 6.04 0 0 1 2.4-2.307C76.57.837 77.74.563 79.065.563zm-4.333 6.302c0 .815.184 1.547.554 2.197.369.65.883 1.155 1.542 1.512.66.358 1.405.536 2.237.536 1.26 0 2.295-.395 3.107-1.186.811-.791 1.217-1.81 1.217-3.059 0-.814-.183-1.548-.55-2.201a3.798 3.798 0 0 0-1.546-1.517c-.665-.357-1.414-.536-2.246-.536-.832 0-1.58.18-2.245.54a3.756 3.756 0 0 0-1.534 1.513c-.357.647-.536 1.38-.536 2.201zM98.323.722v1.854h-4.36V13h-2.372V2.576h-4.36V.722h11.092zm16.291 0v1.854h-5.115V5.75h5.115v1.872h-5.115V13h-2.373V.722h7.488zm10.055-.159c1.272 0 2.416.263 3.432.787a6.053 6.053 0 0 1 2.43 2.268c.604.987.906 2.07.906 3.247a6.098 6.098 0 0 1-.884 3.195 6.076 6.076 0 0 1-2.425 2.285c-1.029.542-2.187.813-3.477.813-1.271 0-2.427-.275-3.467-.826-1.04-.55-1.85-1.308-2.43-2.272a6.078 6.078 0 0 1-.87-3.195c0-1.125.29-2.182.87-3.173a6.04 6.04 0 0 1 2.4-2.307c1.019-.548 2.19-.822 3.515-.822zm-4.333 6.302c0 .815.185 1.547.554 2.197.369.65.883 1.155 1.542 1.512.66.358 1.405.536 2.237.536 1.26 0 2.295-.395 3.107-1.186.812-.791 1.217-1.81 1.217-3.059 0-.814-.183-1.548-.55-2.201a3.798 3.798 0 0 0-1.546-1.517c-.665-.357-1.413-.536-2.246-.536-.832 0-1.58.18-2.245.54a3.756 3.756 0 0 0-1.534 1.513c-.357.647-.536 1.38-.536 2.201zm16.81-6.143v7.145c0 .733.11 1.316.329 1.75.22.433.579.79 1.077 1.071.498.282 1.078.422 1.74.422.726 0 1.343-.133 1.85-.4.507-.266.877-.63 1.112-1.09.234-.46.351-1.097.351-1.911V.722h2.373v7.295c0 1.652-.495 2.922-1.485 3.81-.99.887-2.39 1.331-4.201 1.331-1.137 0-2.123-.202-2.958-.606-.835-.405-1.472-.989-1.911-1.754-.44-.764-.66-1.662-.66-2.694V.722h2.382zm14.735 0l7.294 8.569V.721h2.32V13h-2.038l-7.34-8.71V13h-2.32V.722h2.084zm18.655 0c1.277 0 2.414.26 3.41.782a5.672 5.672 0 0 1 2.32 2.197c.55.944.826 2.004.826 3.182 0 1.201-.277 2.266-.83 3.195-.554.928-1.34 1.648-2.36 2.157-1.02.51-2.189.765-3.507.765h-5.001V.722h5.142zm-.246 10.424c1.312 0 2.365-.395 3.16-1.183.793-.788 1.19-1.82 1.19-3.098 0-1.324-.4-2.37-1.2-3.137-.8-.768-1.876-1.152-3.23-1.152h-2.443v8.57h2.523z"/>
</svg>
