<svg xmlns="http://www.w3.org/2000/svg" width="44" height="13" viewBox="0 0 44 13">
    <g fill="#000" fill-rule="evenodd">
        <path d="M2.338.45v4.02h4.956V.45H9.14V10H7.294V5.967H2.338V10H.492V.45h1.846zM17.04.327c.988 0 1.878.204 2.669.612.79.408 1.42.996 1.89 1.764s.704 1.61.704 2.526c0 .893-.229 1.721-.687 2.484a4.726 4.726 0 0 1-1.887 1.778c-.8.421-1.7.632-2.703.632-.99 0-1.888-.214-2.697-.643a4.748 4.748 0 0 1-1.89-1.767 4.727 4.727 0 0 1-.677-2.484c0-.875.226-1.698.677-2.468A4.698 4.698 0 0 1 14.305.966C15.098.54 16.01.327 17.04.327zM13.67 5.23a3.4 3.4 0 0 0 .43 1.708c.287.506.687.898 1.2 1.176.513.278 1.092.417 1.74.417.98 0 1.785-.307 2.416-.923.631-.615.947-1.408.947-2.378 0-.634-.143-1.205-.427-1.713a2.954 2.954 0 0 0-1.204-1.18 3.63 3.63 0 0 0-1.746-.416c-.647 0-1.23.14-1.747.42-.517.28-.915.673-1.193 1.176-.278.504-.417 1.074-.417 1.713zM26.593.45l3.138 3.767L32.869.45h1.648V10H32.67V3.294h-.055l-2.761 3.363h-.26l-2.762-3.363h-.055V10h-1.845V.45h1.66zm17.201 0v1.443h-4.327V4.4h4.142v1.443h-4.142v2.714h4.423V10h-6.269V.45h6.173zM0 12h44v1H0z"/>
    </g>
</svg>
