<svg xmlns="http://www.w3.org/2000/svg" width="102" height="10" viewBox="0 0 102 10">
    <path fill="#000" fill-rule="evenodd" d="M6.193.814v1.237H2.484V4.2h3.551v1.237h-3.55v2.326h3.79V9H.902V.814h5.291zm3.783 0l2.69 3.229L15.354.814h1.412V9h-1.582V3.252h-.047L12.77 6.135h-.223l-2.367-2.883h-.047V9H8.552V.814h1.424zm13.364 0L26.955 9h-1.67l-.85-1.992h-3.638L20.006 9h-1.658L21.723.814h1.617zm-2.063 4.993h2.643l-1.383-3.24-1.26 3.24zM30.253.814V9h-1.582V.814h1.582zm4.222 0v6.95h3.973V9h-5.555V.814h1.582zm13.259 0L51.349 9h-1.67l-.85-1.992h-3.638L44.4 9H42.74L46.116.814h1.618zM45.67 5.807h2.643l-1.383-3.24-1.26 3.24zM56.137.814c.852 0 1.61.174 2.274.522.664.348 1.18.836 1.547 1.465.367.629.55 1.336.55 2.12 0 .802-.184 1.512-.553 2.13a3.721 3.721 0 0 1-1.573 1.44c-.68.34-1.46.509-2.338.509H52.71V.814h3.427zm-.164 6.95c.875 0 1.578-.263 2.107-.788.53-.526.794-1.214.794-2.066 0-.883-.267-1.58-.8-2.092-.533-.511-1.251-.767-2.153-.767h-1.63v5.713h1.682zm9.86-6.95c.851 0 1.61.174 2.273.522.664.348 1.18.836 1.547 1.465.367.629.55 1.336.55 2.12 0 .802-.184 1.512-.553 2.13a3.721 3.721 0 0 1-1.573 1.44c-.68.34-1.459.509-2.338.509h-3.334V.814h3.428zm-.164 6.95c.875 0 1.577-.263 2.106-.788.53-.526.794-1.214.794-2.066 0-.883-.266-1.58-.8-2.092-.533-.511-1.25-.767-2.153-.767h-1.629v5.713h1.682zm9.579-6.95c.77 0 1.396.213 1.88.64.485.425.727.98.727 1.663 0 .465-.12.87-.36 1.216s-.597.618-1.07.817c.262.141.495.332.698.575.203.242.455.65.756 1.224.5.992.87 1.676 1.113 2.051h-1.764a9.957 9.957 0 0 1-.492-.861c-.453-.871-.785-1.458-.996-1.761-.211-.303-.414-.518-.61-.645a1.209 1.209 0 0 0-.673-.19h-.575V9H72.3V.814h2.948zm-.358 3.493c.414 0 .74-.104.976-.31.236-.208.354-.491.354-.85 0-.376-.117-.656-.351-.841-.235-.186-.569-.279-1.002-.279h-.985v2.28h1.008zM85.92.814v1.237h-3.709V4.2h3.55v1.237h-3.55v2.326h3.791V9h-5.373V.814h5.291zM90.872.71c.797 0 1.564.2 2.302.598v1.406c-.847-.512-1.6-.768-2.255-.768-.399 0-.71.077-.935.232a.716.716 0 0 0-.337.618c0 .309.209.594.627.855.117.079.568.297 1.353.657.672.316 1.157.668 1.454 1.054.297.387.445.852.445 1.395 0 .703-.253 1.27-.759 1.702-.506.432-1.161.647-1.966.647-.523 0-.973-.057-1.35-.172-.377-.116-.8-.314-1.269-.595V6.779c.875.727 1.7 1.09 2.473 1.09.387 0 .7-.084.937-.252a.78.78 0 0 0 .358-.668c0-.379-.207-.687-.621-.926a30.758 30.758 0 0 0-1.33-.673c-.645-.293-1.126-.635-1.445-1.026a2.089 2.089 0 0 1-.477-1.36c0-.687.256-1.235.767-1.643.512-.408 1.188-.612 2.028-.612zm7.33 0c.797 0 1.564.2 2.303.598v1.406c-.848-.512-1.6-.768-2.256-.768-.399 0-.71.077-.935.232a.716.716 0 0 0-.337.618c0 .309.21.594.627.855.117.079.568.297 1.354.657.672.316 1.156.668 1.453 1.054.297.387.445.852.445 1.395 0 .703-.253 1.27-.759 1.702-.506.432-1.16.647-1.966.647-.523 0-.973-.057-1.35-.172-.377-.116-.8-.314-1.269-.595V6.779c.875.727 1.7 1.09 2.473 1.09.387 0 .7-.084.938-.252a.78.78 0 0 0 .357-.668c0-.379-.207-.687-.621-.926a30.758 30.758 0 0 0-1.33-.673c-.645-.293-1.126-.635-1.445-1.026a2.089 2.089 0 0 1-.477-1.36c0-.687.256-1.235.767-1.643.512-.408 1.188-.612 2.028-.612z"/>
</svg>
