<svg xmlns="http://www.w3.org/2000/svg" width="58" height="10" viewBox="0 0 58 10">
    <path fill="#000" fill-rule="evenodd" d="M2.326.814l2.69 3.229L7.706.814h1.411V9H7.535V3.252h-.047L5.121 6.135h-.223L2.531 3.252h-.047V9H.902V.814h1.424zm14.687 0v1.237h-3.71V4.2h3.552v1.237h-3.551v2.326h3.79V9h-5.372V.814h5.29zM21.965.71c.796 0 1.564.2 2.302.598v1.406c-.847-.512-1.6-.768-2.256-.768-.398 0-.71.077-.934.232a.716.716 0 0 0-.337.618c0 .309.209.594.627.855.117.079.568.297 1.353.657.672.316 1.157.668 1.454 1.054.296.387.445.852.445 1.395 0 .703-.253 1.27-.759 1.702-.506.432-1.161.647-1.966.647-.523 0-.973-.057-1.35-.172-.377-.116-.8-.314-1.269-.595V6.779c.875.727 1.7 1.09 2.473 1.09.386 0 .699-.084.937-.252a.78.78 0 0 0 .358-.668c0-.379-.207-.687-.621-.926a30.758 30.758 0 0 0-1.33-.673c-.645-.293-1.126-.635-1.445-1.026a2.089 2.089 0 0 1-.477-1.36c0-.687.255-1.235.767-1.643C20.45.913 21.125.71 21.965.71zm7.31 0c.797 0 1.564.2 2.302.598v1.406c-.847-.512-1.6-.768-2.255-.768-.399 0-.71.077-.935.232a.716.716 0 0 0-.337.618c0 .309.21.594.627.855.117.079.568.297 1.354.657.671.316 1.156.668 1.453 1.054.297.387.445.852.445 1.395 0 .703-.253 1.27-.759 1.702-.506.432-1.16.647-1.966.647-.523 0-.973-.057-1.35-.172-.377-.116-.8-.314-1.269-.595V6.779c.875.727 1.7 1.09 2.473 1.09.387 0 .7-.084.937-.252a.78.78 0 0 0 .358-.668c0-.379-.207-.687-.621-.926a30.758 30.758 0 0 0-1.33-.673c-.645-.293-1.126-.635-1.445-1.026a2.089 2.089 0 0 1-.477-1.36c0-.687.256-1.235.767-1.643C27.76.913 28.435.71 29.275.71zm8.765.105L41.655 9h-1.67l-.85-1.992h-3.638L34.706 9h-1.658L36.423.814h1.617zm-2.063 4.993h2.643l-1.383-3.24-1.26 3.24zM47.005.709c1.007 0 2.007.225 3 .674V2.83c-.993-.504-1.97-.756-2.93-.756-.598 0-1.129.12-1.594.358A2.567 2.567 0 0 0 44.4 3.46a2.96 2.96 0 0 0-.385 1.497c0 .836.279 1.509.835 2.019.557.51 1.29.764 2.2.764.25 0 .49-.021.718-.064.229-.043.501-.125.818-.246V6.07h-1.354V4.834h2.936v3.375a4.747 4.747 0 0 1-1.45.66 6.493 6.493 0 0 1-1.761.236c-.863 0-1.646-.177-2.347-.533a3.999 3.999 0 0 1-1.64-1.494 4.023 4.023 0 0 1-.59-2.144c0-.801.199-1.526.595-2.174a4.036 4.036 0 0 1 1.659-1.512c.709-.36 1.499-.539 2.37-.539zm10.942.105v1.237h-3.709V4.2h3.551v1.237h-3.55v2.326h3.79V9h-5.373V.814h5.291z"/>
</svg>
