<svg xmlns="http://www.w3.org/2000/svg" width="37" height="10" viewBox="0 0 37 10">
    <path fill="#000" fill-rule="evenodd" d="M2.291.814l4.863 5.713V.814h1.547V9h-1.36L2.45 3.193V9H.902V.814h1.389zm12.977 0L18.884 9h-1.67l-.85-1.992h-3.639L11.935 9h-1.659L13.651.814h1.617zm-2.062 4.993h2.643l-1.383-3.24-1.26 3.24zM21.888.814l2.69 3.229 2.69-3.229h1.411V9h-1.582V3.252h-.046l-2.368 2.883h-.222l-2.367-2.883h-.047V9h-1.582V.814h1.423zm14.687 0v1.237h-3.709V4.2h3.551v1.237h-3.55v2.326h3.79V9h-5.373V.814h5.291z"/>
</svg>
