<svg xmlns="http://www.w3.org/2000/svg" width="68" height="12" viewBox="0 0 68 12">
    <path fill="#FFF" fill-rule="evenodd" d="M4.652-.055c1.063 0 2.086.266 3.07.797v1.875c-1.13-.682-2.132-1.023-3.007-1.023-.531 0-.947.103-1.246.308-.3.206-.45.48-.45.825 0 .411.28.791.836 1.14.157.104.758.396 1.805.875.896.422 1.542.89 1.938 1.406.395.516.593 1.136.593 1.86 0 .937-.337 1.694-1.011 2.27-.675.575-1.548.863-2.621.863-.698 0-1.299-.077-1.801-.23-.503-.154-1.067-.419-1.692-.794V8.04c1.167.969 2.266 1.453 3.297 1.453.516 0 .933-.112 1.25-.336.318-.224.477-.52.477-.89 0-.506-.276-.917-.828-1.235a41.01 41.01 0 0 0-1.774-.898c-.86-.39-1.501-.847-1.925-1.367a2.785 2.785 0 0 1-.637-1.813c0-.917.34-1.647 1.023-2.191.683-.545 1.584-.817 2.703-.817zm8.914.14v6.353c0 .65.098 1.169.293 1.554.196.386.515.703.957.953.443.25.959.375 1.547.375.646 0 1.194-.118 1.645-.355.45-.237.78-.56.988-.969.208-.409.313-.975.313-1.7V.087h2.109V6.57c0 1.47-.44 2.598-1.32 3.387-.88.79-2.125 1.184-3.735 1.184-1.01 0-1.886-.18-2.629-.54-.742-.359-1.308-.878-1.699-1.558-.39-.68-.586-1.478-.586-2.395V.086h2.117zm15.68 0c1 0 1.815.261 2.445.782.63.521.946 1.172.946 1.953 0 .5-.132.94-.395 1.32-.263.38-.644.683-1.144.907v.094c.76.172 1.353.511 1.777 1.02.424.507.637 1.102.637 1.784 0 .604-.155 1.145-.465 1.621a2.86 2.86 0 0 1-1.29 1.075c-.549.24-1.196.359-1.94.359h-4.57V.086h4zm-.562 4.532c.557 0 .997-.133 1.32-.398.323-.266.484-.636.484-1.11 0-.422-.148-.756-.445-1.004-.297-.247-.688-.37-1.172-.37h-1.516v2.882h1.329zm.492 4.735c.713 0 1.252-.135 1.617-.403s.547-.663.547-1.183c0-.464-.181-.83-.543-1.098-.362-.268-.848-.402-1.457-.402h-1.985v3.086h1.82zM38.79.086l3.586 4.305L45.963.086h1.883V11h-2.11V3.336h-.062L42.518 7.18h-.297l-3.156-3.844h-.063V11h-2.109V.086h1.898zm15.618 0V11h-2.11V.086h2.11zm12.907 0v1.648h-3.875V11h-2.109V1.734h-3.875V.086h9.86z"/>
</svg>
